<?xml version="1.0" encoding="utf-8"?>
<!-- Generator: Adobe Illustrator 25.0.1, SVG Export Plug-In . SVG Version: 6.00 Build 0)  -->
<svg version="1.1" id="Layer_1" xmlns="http://www.w3.org/2000/svg" xmlns:xlink="http://www.w3.org/1999/xlink" x="0px"
	y="0px" viewBox="0 0 311.5 60.3" style="enable-background:new 0 0 311.5 60.3;" xml:space="preserve">
	<style type="text/css">
		.st0 {
			fill: #5d3663;
		}

		.st1 {
			fill: #FFCC88;
		}
	</style>
	<path class="st0" d="M27.7,27.5c2.4,2.7,3.9,5.9,3.9,8.7c0,2.3-0.9,4.9-2.7,7.1c-3.6,4.5-9.5,6.6-15.3,6.6c-1.6,0-3.2-0.1-4.7-0.4
	c-5.3-1-8.9-4.1-8.9-8.2c0-5.6,5.1-9,8.8-9c1.5,0,2.1,0.5,2.1,1.1c0,0.2-0.1,0.5-0.4,0.8c-2.4,0.4-4.3,2.2-4.3,4.5
	c0,0.5,0.1,1,0.2,1.5c1,2.9,5.7,4.6,10.1,4.6c3.6,0,7.1-1.4,7.9-4.1c0.1-0.4,0.2-0.9,0.2-1.3c0-1-0.3-1.9-0.8-2.9
	c-1.8-3.6-6.5-7.3-10.3-9.8c-3.5-2.4-7.9-6-9.8-10.4c-0.5-1.3-0.9-2.7-0.9-4.2c0-1.8,0.5-3.6,1.5-5.3c2.4-3.9,7.1-5.6,11.4-5.6
	c4.7,0,11.5,3.1,11.5,8.5c0,1-0.2,2.1-0.7,3.2c-0.6,1.2-2.1,1.5-3.5,1.5c-1,0-1.9-0.1-2.6-0.2c0-1.7-0.1-3.7-0.7-5.4
	C19.1,7,17.5,5,15.2,5s-5.4,1.8-5.4,5c0,1.1,0.4,2.1,1,3C14.1,17.9,23.1,22.5,27.7,27.5z M68.8,12.3c1.6,0,3.4-0.8,3.4-2.5
	s-1.1-3.1-2.5-4c-1.2-0.8-2.6-1.3-3.8-1.3c-1.4,0-2.4,0.4-3,1.2c-0.3,0.4-0.5,0.9-0.5,1.5c0,0.9,0.4,1.8,1.2,2.7
	C64.9,11.3,66.9,12.3,68.8,12.3L68.8,12.3z M255.5,40.1c0,0.4-0.1,0.8-0.2,1.3c-0.8,3-4,5.9-6.3,6.6c-0.4,0.1-0.9,0.2-1.3,0.2
	c-2.9,0-6.1-2.4-7-5.8c-0.5-1.9-0.7-3.8-0.7-5.8c0-3,0.4-5.9,0.4-9.2c0-0.5,0-1.8-0.3-3c-0.2-0.9-0.6-1.6-1.3-1.6
	c-0.4,0-1,0.6-1.6,1.7c-1.2,2-2.5,5.4-3.6,9c-1.7,5.3-3.1,10.9-3.1,13v0.4c-0.6,0.2-1.3,0.3-2,0.3c-1.9,0-4-0.9-4.5-2.9
	c-0.1-0.6-0.2-1.2-0.2-1.9c0-2.1,0.4-5,0.5-8.6c0.1-1.3,0.1-2.8,0.1-4.1c0-3.7-0.2-6.9-1.5-6.9s-3.4,5.3-5.2,11
	c-1.6,5.2-2.9,10.8-2.9,13.2c-0.3,0.1-0.7,0.2-1,0.2c-1.4,0-3.4-0.8-4.7-2c-1.4,1.5-3.4,2.7-5.6,2.7c-1.5,0-3.5-0.8-4.8-1.8
	c-1-0.7-1.8-1.7-2-2.7c-0.5-2.4-0.7-3.9-0.7-5.5c0-0.8,0.1-1.6,0.1-2.5c0-0.2,0.1-0.5,0.1-0.7c-0.9,2.9-3.8,11.5-7.6,12.8
	c-0.5,0.2-1,0.2-1.6,0.2c-2.1,0-4.1-1.4-5.5-3.7c-1.6-2.5-2.7-6.2-2.9-10.1v-0.3c-0.4,0-0.8,0.1-1.1,0.1c-3.4,0-6.4-1.6-8-4.1
	c-0.8,1.3-1.6,3-2.2,4.7c-0.8,2.2-1.5,4.5-1.5,6.1c0,2.5,0.1,4.6,0.2,7c-0.4,0.2-0.9,0.3-1.4,0.3c-1.9,0-4-1.6-4.6-3.3
	c-0.1-0.3-0.2-0.6-0.3-0.9c-1.6,1.5-3.7,2.8-6,4.1c-0.4,3.4-1.4,7-3.4,9.3c-1.9,2.3-5.5,3.4-8.7,3.4c-2.2,0-7.1-0.7-7.1-4
	c0-0.7,0.2-1.3,0.6-2c1.3-2,4.4-3.5,7.2-4.9c1.9-0.9,4.9-2.5,4.9-2.5c0-1.2,0.1-3,0.1-6.2c0-2.9,0.6-6.7,0.6-7.9
	c-1.5,4.6-3.3,9.7-5.6,12.5c-1,1.2-2.2,2.2-4,2.2c-1.3,0-2.7-0.5-3.9-1.6c-0.8-0.7-1.6-1.7-2.3-2.8c-0.7,1.3-1.8,2.5-3,3.4
	c-1.2,0.9-2.4,1.5-3.3,1.5c-1.7,0-6.1-0.8-7.6-5.7c-0.5-1.6-0.7-3.4-0.7-5.2c0-2.2,0.2-4.6,0.4-6.9c0.1-1.6,0.4-3.6,0.4-5.2
	c0-1.8-0.3-3-1.3-3c-0.5,0-1.3,0.9-2.2,2.4c-1.1,2-2.4,5-3.5,8.2c-2.1,5.8-3.8,12.2-3.8,14V47c0,0.6-0.3,0.8-0.7,0.8
	c-1.4,0-4.4-2.7-5-6.8c-0.2-1-0.2-2.1-0.2-3.1c0-0.9,0.1-2,0.1-3.3c-1.1,0.4-2.4,0.7-3.8,0.9c-0.5,4.7-1.9,9-5.2,11
	c-1.2,0.7-2.7,1.1-4.2,1.1c-4.1,0-8.8-2.2-10.6-5.5c-0.1-0.1-0.1-0.3-0.2-0.4c-0.1,0.4-0.3,0.8-0.5,1.1c-1.7,3-4.1,4.8-6.7,4.8
	c-3.1,0-5.3-1.6-6.5-3.6c-1,1.6-2.5,3.1-4.2,3.7c-0.7,0.2-1.4,0.4-2.1,0.4c-3.2,0-6.2-2.4-7.3-5c-0.5-1.3-0.7-3.2-0.7-5.2
	c0-2.4,0.2-5,0.3-7.2c0.1-1.9,0.2-3.8,0.2-5.3c0-1.9-0.2-3.3-1.2-3.3c-1.4,0.1-3.9,5.6-5.9,11.6c-1.9,5.7-3.2,10.7-3.3,13
	c-0.1,0.6-0.4,0.9-0.8,0.9c-1.5,0-4.2-2.4-4.6-5.3c-0.2-2.2-0.5-10.6-0.5-19c0-9,0.4-17.5,1.8-21C36,0.9,37.6,0,39.3,0
	c2.9,0,6,2.5,6.9,6.9c0.1,0.7,0.2,1.4,0.2,2.1c0,4.5-2.7,9.6-5.3,14.4c-0.2,2.2-0.3,5-0.6,8.9c0.3-1.2,3.3-11.4,6.1-13.3
	c0.8-0.7,1.9-1,3-1c3,0,6.1,2.2,7,4.9c0.4,1.3,0.5,2.7,0.5,4.4c0,2.1-0.2,4.5-0.4,6.9c-0.2,2.1-0.4,4.5-0.4,6.5c0,1.8,0.2,4,1.8,4
	c1.4,0,3.1-1.6,4.3-3.6c-0.3-1.9-0.3-3.4-0.3-5c0-2.9,0.3-6.1,0.5-9.4c0.3-3.4,0.7-6.9,0.7-10.4h0.5c1.7,0,4.1,0.8,5.5,3.7
	c0.5,1.2,0.7,2.6,0.7,4.2s-0.2,3.3-0.3,5.2c-0.2,3.1-0.6,6.2-0.6,9.5c0,1.8,0.1,3.5,0.7,4.3c0.3,0.4,0.8,0.6,1.4,0.6
	s1.5-0.5,2.1-1.2c1.2-1.1,2.2-2.9,2.7-4c-0.6-2.2-0.9-4.4-0.9-6.6c0-5.6,1.8-11,4.8-13.3c1.2-1,2.4-1.4,3.6-1.5c1-0.5,2-0.7,3.1-0.7
	c1.3,0,2.7,0.3,4,0.8c3,1.2,5,3.3,6,6.2c0.7,2.3,1.2,5.1,1.3,7.9c1.4-0.3,2.8-0.8,3.9-1.4c0.2-3.2,0.5-6.4,0.5-8.9
	c0-1.3-0.1-2.3-0.2-3.2c0.3-0.1,0.7-0.1,1-0.1c1.8,0,3.8,1.2,4.8,3.5c0.4,0.8,0.4,2.2,0.4,3.8c0,3.3-0.6,7.2-0.6,9.3
	c0-0.1,0.1-0.1,0.1-0.2c0.3-1.2,1.3-5.1,2.9-8.8c1.3-3.1,2.6-5.9,3.8-6.8c0.9-0.7,1.9-1,3-1c3,0,6.2,2.2,7,4.8
	c0.3,1,0.4,2.4,0.4,3.8c0,2.2-0.2,4.7-0.4,6.9c-0.1,1-0.4,3.9-0.4,6.5c0,1.9,0.1,4.6,1.8,4.6c0.7,0,1.4-0.4,2.1-1
	c0.9-0.8,1.9-2,2.5-3.2c0-0.1-0.1-0.1-0.1-0.2c-0.6-2.1-1-4.3-1-6.6c0-4,1-7.9,2.9-11c2-3.2,5-5.3,8.7-5.3c2.1,0,5,1.3,6.6,4.1
	c0.2-0.7,0.3-1.4,0.4-2c0.1-0.3,0.6-0.4,1.3-0.4c1.8,0,4.4,1,5.3,2.6c0.2,0.4,0.2,0.7,0.2,1.1c-0.4,2.5-0.1,4.4-0.4,8.7
	c-0.2,3.3-0.5,11.3-0.5,12c1.2-0.8,2.4-1.7,3.5-2.7c0.5-0.4,1-0.9,1.5-1.4c-0.1-1.6-0.1-3.2-0.1-4.8c0-2.5,0.1-5.8,0.1-8.2
	c0.1-1.9,0.1-3.7,0.1-5.1c0-1.3-0.1-2.2-0.2-2.9c0.4-0.1,0.8-0.2,1.3-0.2c1.8,0,3.3,1.1,4.3,2.7c1.2,1.8,1.3,4.3,1.3,6.9v2.4
	c0.5-1.8,1.2-3.5,1.8-4.7c-0.1-0.4-0.1-0.9-0.1-1.3c0-0.6,0.1-1.4,0.2-2.2c0.4-1.8,1.1-3.1,2-3.8c0.4-0.3,0.8-0.4,1.3-0.4
	c1.9,0,4.5,2.1,4.5,4.5c0,1.6-2.5,4.5-2.5,4.5s1.1,3.2,4,3.8c0.2,0.1,0.4,0.1,0.6,0.1c0.4,0,0.7-0.1,1-0.2
	c0.8-5.2,3.2-10.4,7.3-12.1c1-0.4,2.1-0.6,3.2-0.6c3,0,5.9,1.5,7.7,4.1c0.1-0.7,0.2-1.3,0.2-2.2c0.1-0.6,0.5-0.9,1.2-0.9
	c1.9,0,5.3,2.2,5.3,4.9c0,0.6-0.1,2.1-0.3,3.9c-0.4,3.5-0.8,8.1-0.8,11.6c0,2.9,0.3,5,1.2,5.5c0.3,0.1,0.5,0.2,0.9,0.2
	c1.1,0,2.2-1.1,3.2-2.4c0-0.6,0-1.3,0-1.9c0-2.7,0.1-6.1,0.3-8.7c0.2-3.3,0.5-5.8,0.5-8.4c0-1.3-0.1-2.5-0.3-3.9
	c0.4-0.1,0.8-0.2,1.2-0.2c1.8,0,3.9,0.9,4.7,2.7c0.4,0.8,0.7,2.5,0.7,4.8c0,0.5,0,1.2-0.4,8.2c0.2-0.9,1.5-6.1,3.1-10.3
	c1-2.7,2.2-6,5.8-6c2.7,0,5.3,2,6.2,4.4c0.9,2.1,1,4.4,1,6.6c0,1.3-0.1,2.6-0.1,4.4c1-4.1,2.3-7,3.5-10.1c1-2.8,2.9-5.4,5.6-5.4
	c2.5,0,5.9,1.4,7.1,5.4c0.3,1.2,0.4,2.4,0.4,3.7c0,1.8-0.2,3.8-0.3,5.8c-0.1,1.2-0.3,3.8-0.3,6.2c0,2.2,0.2,4.3,1,4.9
	c0.3,0.2,0.6,0.3,1,0.3c0.9,0,1.8-0.7,2.7-1.8c1.3-1.6,2.4-3.8,2.7-4.9C254.6,37.7,255.5,38.6,255.5,40.1L255.5,40.1z M39.6,19.8
	c1.8-3.6,3.3-7,3.3-11.3c0-1.6-0.9-2.3-1.6-2.3c-0.6,0-1.2,0.5-1.5,1.3c-0.2,0.9-0.5,2.3-0.5,5.4C39.3,16.1,39.6,19.9,39.6,19.8z
	 M91.9,36c-1.6-0.2-3.2-0.6-4.7-1.2c-1.5-0.5-2.9-1.3-4.2-2.4c0,2.7,0.4,5.2,1,7.2c0.8,2.7,2.1,4.5,3.5,4.5c0.2,0,0.5-0.1,0.7-0.2
	c0.7-0.3,1.5-1.3,2.1-2.7C90.9,39.8,91.4,37.9,91.9,36z M92.6,29.6c0-1.7-0.2-3.5-0.7-4.7c-1-2.4-3.1-4.1-4.8-4.1
	c-0.6,0-1.2,0.2-1.6,0.7c-0.6,0.7-1,1.7-1,2.7c0,1.8,1,3.8,2.7,5.4c1.4,1.3,3.6,2.1,5.3,2.1C92.6,31,92.6,30.3,92.6,29.6z
	 M147.2,25.5c-0.4-2.7-2.2-4.8-4.1-4.8c-2.7,0-4.9,6.4-5.5,11.4c-0.2,1.4-0.2,2.8-0.2,4.2c0,4.2,0.9,6.2,2.1,6.2
	c1.2,0,2.6-3.2,4.2-6.7C145.2,32.8,146.2,29.1,147.2,25.5z M146.7,51.1c-0.9,0.4-4.6,2.1-5.6,2.9c-0.4,0.2-1.1,0.8-1.1,1.3
	c0,0.7,1,1.1,2.1,1.1c1.2,0,2.5-0.5,3.3-1.7C146.1,53.5,146.4,52.3,146.7,51.1z M196.2,25.5c-0.2-1.9-1.8-4.7-3.8-4.7
	c-0.7,0-1.4,0.3-2.1,1c-2.5,2.6-3.9,9.6-3.9,14.6c0,3.1,0.8,6,1.8,6c0.9,0,2-1.2,3.1-3.1C193.1,36,195.1,30.5,196.2,25.5L196.2,25.5
	z" />
	<path class="st1" d="M286,0c-1.9,0-3.8,0.2-5.7,0.7c3.4,0.3,6.6,1.6,9.3,3.6c2.7,2,4.8,4.8,6,8c1.2,3.2,1.5,6.6,0.9,9.9
	c-0.6,3.3-2.2,6.4-4.5,8.9c-2.3,2.5-5.2,4.3-8.5,5.2c-3.3,0.9-6.7,0.9-10-0.1c-3.3-1-6.2-2.8-8.4-5.3c-2.3-2.5-3.8-5.6-4.4-9
	c-0.7,5.2,0.1,10.4,2.4,15.1c2.3,4.7,6,8.5,10.6,11c4.6,2.5,9.8,3.5,15,3c5.2-0.6,10.1-2.7,14-6.1c3.9-3.4,6.7-7.9,8-13
	s1-10.4-0.8-15.3c-1.8-4.9-5.1-9.1-9.4-12.1C296.3,1.6,291.2,0,286,0z" />
</svg>