<svg width="494" height="102" viewBox="0 0 494 102" fill="none" xmlns="http://www.w3.org/2000/svg">
<path d="M103.106 25C105.656 26.29 108.036 25.32 109.606 23.09C110.471 21.8348 110.809 20.2905 110.547 18.789C110.285 17.2875 109.445 15.9486 108.206 15.06L106.986 14.21C105.729 13.336 104.177 12.9949 102.669 13.2609C101.161 13.5269 99.8189 14.3786 98.9363 15.63C98.1588 16.6837 97.8119 17.9939 97.9661 19.2943C98.1203 20.5946 98.764 21.7874 99.7663 22.63C100.793 23.5359 101.912 24.3303 103.106 25Z" fill="url(#paint0_linear_708_325)"/>
<path d="M385.566 66.82C384.806 61.82 382.116 62.28 382.566 64.63C382.906 65.88 382.346 68.45 381.106 71.01C380.827 71.7702 380.361 72.448 379.751 72.981C379.141 73.514 378.407 73.885 377.616 74.06C375.616 74.43 374.236 74.35 372.216 72.37C369.906 69.93 371.626 63.68 372.046 59.47C372.466 55.26 374.876 46.47 372.266 40.47C370.836 37.47 368.186 33.76 360.266 34.01C351.686 34.42 350.806 46.24 350.426 51.62C350.036 57.17 348.826 56.98 348.656 54.2C348.478 51.0542 348.11 47.9218 347.556 44.82C346.706 39.32 343.426 35 336.946 34.74C328.116 34.49 328.026 50.14 327.436 52.84C326.686 56.84 324.956 56.03 324.916 51.91V40.78C324.916 36.57 322.726 34.05 319.166 34.22C314.986 34.22 315.286 47.22 314.986 52.88C314.876 54.81 314.736 62.08 314.836 67.59C314.166 68.1875 313.695 68.9763 313.486 69.85C311.956 74.85 309.616 75.08 306.986 74.51C303.396 73.62 304.816 67.3 304.986 63.71C305.346 60.71 305.986 43.35 304.246 37.06C302.506 30.77 299.876 35.92 298.766 37.63C297.916 38.94 296.426 38.19 294.826 36.74C293.226 35.29 289.236 32.59 282.536 32.51C279.462 32.61 276.4 32.9443 273.376 33.51C268.446 34.22 263.286 38.18 258.036 37.6C255.086 37.27 253.036 36.96 251.176 34.19C249.506 31.67 247.376 30.6 246.346 34.44C245.046 37.44 245.446 57.37 245.776 68.44C244.352 69.1268 243.011 69.9721 241.776 70.96C234.526 75.75 234.536 72.31 235.076 68.78C235.176 68.1 236.206 63.08 236.346 62.41C238.056 53.86 238.646 43.06 236.806 37.67C235.126 32.72 231.706 36.54 229.806 36.04C227.906 35.54 227.446 34.4 225.096 33.09C222.096 31.41 216.166 31.49 211.786 34.86C207.106 38.44 203.606 45.06 202.596 50.06C201.866 53.68 200.996 62.86 203.446 68.96C201.296 71.13 198.726 73.37 196.196 73.14C191.436 72.72 190.656 64.64 192.026 59.03C192.724 56.1564 193.149 53.2234 193.296 50.27C193.626 43.37 192.296 37.07 185.536 33.45C177.686 28.97 171.706 37.24 168.676 47.21C167.676 50.45 166.276 53.99 166.066 52.85C165.916 45.2 166.406 41.85 165.776 37.49C164.676 30.42 157.606 31.03 157.066 42.71C156.946 45.56 156.776 49.32 156.676 53.36C155.676 53.36 154.826 53.42 154.326 53.48C150.496 53.9 150.326 52 149.886 45.1C149.566 40.4417 147.574 36.0559 144.276 32.75C141.886 30.9708 139.074 29.8436 136.116 29.4789C133.159 29.1143 130.157 29.5247 127.406 30.67C124.41 31.9958 121.898 34.2178 120.216 37.03C118.216 40.29 116.726 44.92 116.136 52.53C115.876 58.9 116.356 62.92 117.066 65.73C115.566 68.08 112.886 72.32 110.186 72.45C106.656 72.61 101.396 68.97 105.316 52.98C106.946 46.86 107.976 41.74 107.396 37.73C106.726 33.13 104.266 31.02 102.026 30.85C98.2463 30.57 96.4063 33.02 95.2863 36.53C94.0263 40.97 93.5463 51.53 93.5763 54.38C93.7463 60.14 93.4163 65.32 95.5763 71.06C93.3663 72.71 90.8763 76.19 87.7663 72.8C82.6263 67.12 87.0863 58.8 84.7663 47.8C83.7663 36.73 76.2563 35.61 73.9063 35.39C65.4863 34.34 61.6963 45.21 60.5563 47.65C59.4163 50.09 59.1663 51.12 58.4063 50.78C58.2463 50.71 58.1763 50.26 58.1663 49.59C58.1685 45.0355 59.8571 40.6431 62.9063 37.26C63.9663 36.05 64.9563 34.92 65.4363 34.34C70.9163 28.78 70.7963 24.83 71.2663 22.47C72.0163 16.37 70.4563 10.6 68.6863 7.73999C65.9563 3.65999 59.3063 1.47001 54.6163 4.66001C50.8863 7.03001 49.6763 11.52 49.7263 15.75C49.7263 15.75 49.9263 44.61 49.9263 46.75C49.9263 51.34 49.9263 52.51 48.1963 54.03C47.594 54.4932 46.9178 54.8516 46.1963 55.09C45.8055 53.4476 45.0953 51.8982 44.1063 50.53C38.7163 43.35 33.7763 39.65 22.6663 31.46C11.5563 23.27 12.1063 15.06 16.8263 11.82C21.3163 8.40001 29.4863 10.42 30.7463 17.06C31.2263 19.2 30.9963 24.89 35.4263 24.89C41.0363 24.67 39.3263 16.31 39.3263 16.31C38.6563 11.48 36.8863 5.54 30.2363 3.31C25.1096 1.44487 19.4738 1.54462 14.4163 3.59C8.24633 5.94 3.08633 12.12 4.54633 21.77C6.00633 31.42 9.70634 34.56 22.4963 44.77C35.2863 54.98 37.1963 63.1 33.6063 67.14C27.2663 72.97 17.5063 72.69 13.0163 70.14C7.12633 66.14 8.18634 58.64 15.1463 53.65C16.8863 52.52 16.1463 50.84 13.7563 50.65C10.1563 50.65 6.86632 51.37 4.59632 53.65C0.506318 57.65 -0.183679 61.73 0.0363207 66.54C0.786321 72.95 3.16632 78.63 11.4463 81.25C16.7163 83.1 28.4463 83.55 37.4463 78.05C43.2263 74.51 46.5663 67.12 46.7963 60.38C46.9863 60.31 47.1463 60.29 47.3363 60.21C49.9663 59.11 50.8063 58.73 50.6863 63.44C50.5324 67.1494 50.6829 70.8652 51.1363 74.55C51.5063 78.08 51.8963 81.38 55.0163 81.38C57.8263 81.38 59.1363 80.06 60.4763 71.06C63.0863 53.51 67.4763 48.77 69.0663 46.32C72.9063 41.49 75.2463 44.04 75.8363 48.76C76.5163 55.76 74.8363 60.44 75.6963 69.76C75.8641 71.7922 76.4682 73.7643 77.4674 75.5418C78.4666 77.3193 79.8374 78.8604 81.4863 80.06C83.921 81.5418 86.7947 82.1321 89.6163 81.73C92.8963 81.18 95.3963 78.32 96.4663 76.8C96.8565 76.2522 97.2074 75.6774 97.5163 75.08C98.922 77.5164 101.126 79.3923 103.756 80.39C105.553 81.0459 107.482 81.2575 109.378 81.0068C111.274 80.756 113.082 80.0504 114.646 78.95C116.922 77.307 118.776 75.148 120.056 72.65C122.266 76.58 125.786 81.14 133.176 81.11C135.65 81.2302 138.119 80.7856 140.396 79.81C144.396 77.95 147.026 73.99 148.886 70.18C149.643 68.0991 150.039 65.9042 150.056 63.69C150.176 61.2 151.156 58.89 154.986 59.19L156.586 59.27C156.586 70.22 157.396 81.21 161.436 81.39C164.596 81.39 167.916 73.84 170.166 63.86C172.416 53.88 176.226 39.96 180.376 40.18C184.526 40.4 185.536 48.65 183.296 59.59C181.566 69.11 182.616 78.33 189.236 80.01C195.856 81.69 200.346 79.45 203.936 75.64C204.72 74.8088 205.448 73.9269 206.116 73C206.67 73.5055 207.297 73.9236 207.976 74.24C213.556 76.79 219.976 74.1 223.636 71.37C226.126 69.37 228.176 68.09 227.516 73.26C227.216 75 227.316 77.85 223.836 79.37C221.616 80.37 219.746 81.01 216.836 82.56C211.766 85.27 207.116 90.19 209.256 96C210.536 99.71 215.536 102.09 221.706 100.86C228.126 99.42 229.616 97.97 232.646 94.94C238.706 87.28 234.556 83.07 237.416 79.54C239.967 77.0832 242.816 74.9565 245.896 73.21C245.956 74.84 245.996 75.81 245.996 75.81C246.246 82.17 252.106 82.1 253.596 77.27C256.406 69.03 256.826 63.7 254.196 55.74C251.146 46.53 253.096 43.41 256.436 43.66C259.336 44.0584 262.283 43.9501 265.146 43.34C266.496 42.97 268.636 42.19 270.576 41.74C272.856 41.38 274.576 40.47 272.906 43.36C269.906 46.98 268.606 62.54 270.906 71.71C273.206 80.88 282.846 81.66 285.546 80.38C288.246 79.1 290.126 77.79 293.186 72.38C295.276 68.65 295.986 66.63 296.026 68.38C296.026 71.97 295.956 73.68 297.406 76.7C299.296 80.85 306.476 82.52 311.126 81.42C313.439 80.7062 315.437 79.22 316.786 77.21C317.3 77.9866 318.031 78.5949 318.888 78.9594C319.745 79.3239 320.69 79.4284 321.606 79.26C325.816 78.67 328.256 69.96 328.766 66.85C329.276 63.74 331.376 48.38 334.146 43.41C336.916 38.44 340.906 40.78 341.476 44.01C342.23 49.3755 342.65 54.7825 342.736 60.2C342.816 69.96 343.026 77.93 346.736 78.31C350.446 78.69 351.736 70.1 352.076 68.31C353.206 62.43 353.796 61.31 355.146 53.6C356.276 48.71 356.476 38.04 363.336 41.07C366.176 42.56 366.686 49.16 365.946 53.65C365.416 56.87 362.496 67.32 364.896 73.97C366.456 78.47 369.986 81.42 377.556 80.16C385.666 78.85 386.026 69.93 385.566 66.82ZM57.2563 32.06C56.3963 28.71 57.2563 19.13 57.2563 19.13C57.4663 12.72 60.7463 12.06 62.8063 13.07C64.8663 14.08 65.3063 18.07 65.0263 21.8C64.7463 25.53 62.8163 30.8 59.7963 33.57C58.7763 34.25 57.6363 33.83 57.2563 32.06ZM127.426 41.27C127.67 40.5785 128.058 39.9469 128.565 39.4175C129.072 38.8881 129.686 38.473 130.366 38.2C132.466 36.83 138.366 36.55 141.236 40.93C142.459 42.4392 143.344 44.1933 143.83 46.0737C144.317 47.9542 144.394 49.9172 144.056 51.83C143.266 54.83 138.846 53.73 135.426 52.83C132.006 51.93 129.936 51.37 128.136 49.83C126.336 48.29 126.106 45.19 127.426 41.24V41.27ZM144.426 64.47C143.836 67.32 142.506 70.42 140.036 71.84C137.755 73.1313 135.075 73.5304 132.516 72.96C131.302 72.8021 130.132 72.4008 129.076 71.78C127.847 70.8595 126.759 69.7646 125.846 68.53C124.377 66.7496 123.53 64.5369 123.436 62.23C123.436 61.31 123.436 60.54 123.436 59.88C123.456 59.2509 123.63 58.6364 123.944 58.091C124.258 57.5456 124.702 57.0862 125.236 56.7537C125.771 56.4212 126.379 56.2259 127.007 56.1852C127.635 56.1444 128.263 56.2594 128.836 56.52L129.426 56.81C130.074 57.1416 130.742 57.4322 131.426 57.68C133.159 58.2591 134.93 58.7168 136.726 59.05C138.372 59.3911 140.046 59.572 141.726 59.59C144.866 59.7 145.106 61.6 144.476 64.44L144.426 64.47ZM225.766 91.34C223.586 93.02 220.916 94.79 219.046 93.78C217.176 92.77 219.306 89.78 220.716 88.9C222.406 87.82 224.896 86.12 226.386 86.37C227.876 86.62 228.006 89.63 225.816 91.31L225.766 91.34ZM224.536 62.87C221.996 67.43 219.246 67.87 216.806 67.8C214.546 67.8 213.066 66.04 212.036 64.03C211.226 62.1406 210.95 60.0655 211.236 58.03C211.536 54.32 212.426 48.6 214.096 45.63C215.766 42.66 218.686 40.41 221.666 41.07C224.646 41.73 227.786 45.94 227.786 50.23C227.786 54.52 227.776 57.06 224.586 62.84L224.536 62.87ZM293.846 57.38C292.846 60.72 289.616 70.67 284.146 71.06C278.676 71.45 278.346 62.06 278.496 59.22C278.666 55.35 279.206 47.11 282.186 43.48C284.956 40.11 289.576 38.58 292.636 41.78C295.696 44.98 294.926 53.94 293.896 57.35L293.846 57.38Z" fill="url(#paint1_linear_708_325)"/>
<path d="M448.036 9.97333e-06C444.607 0.0105822 441.189 0.402983 437.846 1.16999C443.908 1.7375 449.69 3.98784 454.54 7.66703C459.39 11.3462 463.116 16.3078 465.296 21.9919C467.476 27.6759 468.024 33.8562 466.878 39.8352C465.732 45.8142 462.938 51.3539 458.811 55.8292C454.684 60.3045 449.388 63.5371 443.521 65.1624C437.654 66.7877 431.45 66.7408 425.608 65.0271C419.767 63.3134 414.52 60.0011 410.461 55.464C406.402 50.9269 403.692 45.3456 402.636 39.35C401.301 48.6137 402.829 58.0644 407.016 66.435C411.204 74.8056 417.85 81.6961 426.064 86.1827C434.278 90.6692 443.667 92.5375 452.973 91.537C462.279 90.5365 471.057 86.715 478.129 80.5849C485.202 74.4547 490.232 66.309 492.544 57.2396C494.856 48.1702 494.341 38.6106 491.066 29.8425C487.792 21.0744 481.915 13.5168 474.224 8.18296C466.534 2.84908 457.396 -0.00615837 448.036 9.97333e-06Z" fill="#FFCC88"/>
<defs>
<linearGradient id="paint0_linear_708_325" x1="247.549" y1="101.203" x2="247.549" y2="-0.266367" gradientUnits="userSpaceOnUse">
<stop stop-color="#6B1A7C"/>
<stop offset="1" stop-color="#3D0746"/>
</linearGradient>
<linearGradient id="paint1_linear_708_325" x1="246.981" y1="101.17" x2="246.981" y2="0.0406994" gradientUnits="userSpaceOnUse">
<stop stop-color="#6B1A7C"/>
<stop offset="1" stop-color="#3D0746"/>
</linearGradient>
</defs>
</svg>
