<svg width="20" height="23" viewBox="0 0 20 23" fill="none" xmlns="http://www.w3.org/2000/svg">
<path d="M17.875 1H2.125C1.50625 1 1 1.44939 1 2.00481V21.4648C1 22.0202 1.36563 22.1616 1.82125 21.7728L9.54437 15.1986C9.72437 15.0471 10.0225 15.0471 10.2025 15.1936L18.1731 21.7879C18.6287 22.1666 19 22.0202 19 21.4648V2.00481C19 1.44939 18.4994 1 17.875 1ZM17.3125 19.0209L11.3444 14.0827C10.9281 13.7394 10.405 13.5677 9.87625 13.5677C9.33625 13.5677 8.80188 13.7444 8.38562 14.0979L2.6875 18.9502V2.51479H17.3125V19.0209Z" fill="#834E8C" stroke="#834E8C" stroke-width="0.7"/>
</svg>
