<svg width="24" height="24" viewBox="0 0 24 24" fill="none" xmlns="http://www.w3.org/2000/svg">
<path d="M0 1C0 0.447715 0.447715 0 1 0H23C23.5523 0 24 0.447715 24 1C24 1.55228 23.5523 2 23 2H1C0.447715 2 0 1.55228 0 1Z" fill="#A175A8"/>
<path fill-rule="evenodd" clip-rule="evenodd" d="M2 4C0.895431 4 0 4.89543 0 6V18C0 19.1046 0.89543 20 2 20H22C23.1046 20 24 19.1046 24 18V6C24 4.89543 23.1046 4 22 4H2ZM22 6H2L2 18H22V6Z" fill="#A175A8"/>
<path d="M1 22C0.447715 22 0 22.4477 0 23C0 23.5523 0.447715 24 1 24H23C23.5523 24 24 23.5523 24 23C24 22.4477 23.5523 22 23 22H1Z" fill="#A175A8"/>
</svg>
