<svg width="26" height="23" viewBox="0 0 26 23" fill="none" xmlns="http://www.w3.org/2000/svg">
<path d="M12.9992 22C12.5497 22 12.1206 21.8566 11.7579 21.5851C9.2956 19.7463 3.41067 15.1724 1.93432 12.4015C0.00332963 8.78024 1.16295 4.12951 4.51409 2.03463C5.59708 1.35854 6.82311 1 8.06957 1C9.93415 1 11.6864 1.76829 12.9992 3.13585C14.3121 1.76829 16.0643 1 17.9289 1C19.1753 1 20.4014 1.35854 21.4844 2.03463C24.8355 4.12951 25.9951 8.78024 24.0692 12.4015C22.5929 15.1724 16.708 19.7463 14.2457 21.5851C13.8779 21.8566 13.4488 22 12.9992 22ZM8.06957 2.53659C7.10918 2.53659 6.16412 2.81317 5.32633 3.33561C2.6444 5.01561 1.72488 8.75463 3.28295 11.6741C4.65202 14.2454 10.8128 18.9678 12.6672 20.3507C12.8613 20.4941 13.132 20.4941 13.3262 20.3507C15.1805 18.9627 21.3413 14.2402 22.7104 11.6741C24.2685 8.75463 23.3489 5.01049 20.667 3.33561C19.8343 2.81317 18.8893 2.53659 17.9289 2.53659C16.2482 2.53659 14.6748 3.3561 13.6122 4.78L12.9992 5.60976L12.3862 4.78C11.3237 3.3561 9.75536 2.53659 8.06957 2.53659Z" fill="#A175A8" stroke="#A175A8" stroke-width="0.8"/>
</svg>
