<svg width="24" height="23" viewBox="0 0 24 23" fill="none" xmlns="http://www.w3.org/2000/svg">
<path d="M12 0C11.7327 0 11.46 0.106068 11.2527 0.318204L0.807273 11.0087C0.289091 11.5391 0 12.2536 0 13.0017V21.3085C0 22.2408 0.741818 23 1.65273 23H7.64182C8.54182 23 9.27273 22.2519 9.27273 21.3308V16.3066C9.27273 14.7658 10.4945 13.5153 12 13.5153C13.5055 13.5153 14.7273 14.7658 14.7273 16.3066V21.3308C14.7273 22.2519 15.4582 23 16.3582 23H22.3473C23.2582 23 24 22.2408 24 21.3085V13.0017C24 12.2536 23.7109 11.5391 23.1927 11.0087L12.7473 0.318204C12.54 0.106068 12.2673 0 12 0Z" fill="#A175A8"/>
</svg>
