<svg width="24" height="24" viewBox="0 0 24 24" fill="none" xmlns="http://www.w3.org/2000/svg">
<path fill-rule="evenodd" clip-rule="evenodd" d="M18 2.8H7C5.23269 2.8 3.8 4.23269 3.8 6V17C3.8 18.7673 5.23269 20.2 7 20.2H18C19.7673 20.2 21.2 18.7673 21.2 17V6C21.2 4.23269 19.7673 2.8 18 2.8ZM7 1C4.23858 1 2 3.23858 2 6V17C2 19.7614 4.23858 22 7 22H18C20.7614 22 23 19.7614 23 17V6C23 3.23858 20.7614 1 18 1H7Z" fill="#5C5C5C"/>
<path fill-rule="evenodd" clip-rule="evenodd" d="M22 8.00001H3V6.20001H22V8.00001Z" fill="#5C5C5C"/>
<path fill-rule="evenodd" clip-rule="evenodd" d="M10 7.00001L6 2.00001L7.57349 1.12585L11.5735 6.12585L10 7.00001Z" fill="#5C5C5C"/>
<path fill-rule="evenodd" clip-rule="evenodd" d="M16.5 7.00001L12.5 2.00001L14.0735 1.12585L18.0735 6.12585L16.5 7.00001Z" fill="#5C5C5C"/>
<path d="M15.75 13.067C16.0833 13.2594 16.0833 13.7405 15.75 13.933L10.5 16.9641C10.1667 17.1565 9.75 16.916 9.75 16.5311L9.75 10.4689C9.75 10.084 10.1667 9.84342 10.5 10.0359L15.75 13.067Z" fill="#5C5C5C"/>
</svg>
