<svg width="22" height="25" viewBox="0 0 22 25" fill="none" xmlns="http://www.w3.org/2000/svg">
<g clip-path="url(#clip0_753_365)">
<path d="M9.34609 6.27881C7.49672 6.27881 5.68888 6.82755 4.15123 7.85566C2.61359 8.88378 1.41518 10.3451 0.707628 12.0547C7.17808e-05 13.7644 -0.184855 15.6455 0.17621 17.4604C0.537274 19.2752 1.42814 20.9421 2.73611 22.2503C4.04407 23.5584 5.71041 24.4492 7.52434 24.8097C9.33827 25.1703 11.2183 24.9845 12.9267 24.2758C14.6351 23.5672 16.0951 22.3676 17.122 20.8286C18.1489 19.2897 18.6966 17.4806 18.6959 15.6302C18.693 13.1503 17.7069 10.7729 15.954 9.0197C14.2011 7.2665 11.8246 6.28077 9.34609 6.27881ZM6.59704 7.8633C5.98716 8.68743 5.52059 9.60858 5.21696 10.588H2.83786C3.80652 9.344 5.11103 8.4036 6.59704 7.87808V7.8633ZM2.10898 11.6986H4.90613C4.65048 12.8068 4.50672 13.9379 4.47697 15.0749H1.147C1.22066 13.8979 1.54888 12.751 2.10898 11.7134V11.6986ZM2.10898 19.5655C1.53986 18.5238 1.20521 17.3702 1.12848 16.1855H4.45845C4.48798 17.3237 4.63178 18.4561 4.88766 19.5655H2.10898ZM2.84897 20.6761H5.22803C5.53166 21.6555 5.99822 22.5767 6.60811 23.4008C5.11805 22.8772 3.80952 21.9367 2.83786 20.6909L2.84897 20.6761ZM8.80221 23.7822C7.84392 23.4564 6.98923 22.3013 6.40464 20.6761H8.80221V23.7822ZM8.80221 19.5655H6.06422C5.78692 18.4592 5.63182 17.3257 5.60173 16.1855H8.80221V19.5655ZM8.80221 15.0749H5.60173C5.63209 13.9359 5.78718 12.8038 6.06422 11.6986H8.80221V15.0749ZM8.80221 10.588H6.40464C6.98923 8.96281 7.84392 7.80776 8.80221 7.48198V10.588ZM16.598 11.6986C17.1634 12.7403 17.4966 13.8921 17.5748 15.0749H14.2448C14.2169 13.9378 14.0731 12.8065 13.8157 11.6986H16.598ZM15.858 10.588H13.479C13.1781 9.60819 12.7126 8.68678 12.1026 7.8633C13.5899 8.39762 14.8922 9.34859 15.8544 10.6028L15.858 10.588ZM9.90479 7.48198C10.8668 7.80776 11.7215 8.96281 12.3061 10.588H9.90479V7.48198ZM9.90479 11.6986H12.6428C12.918 12.8041 13.0731 13.9361 13.1053 15.0749H9.90109L9.90479 11.6986ZM9.90479 16.1855H13.109C13.077 17.3256 12.922 18.4588 12.6465 19.5655H9.90479V16.1855ZM9.90479 23.7822V20.6761H12.3061C11.7178 22.3161 10.8631 23.4711 9.90109 23.7969L9.90479 23.7822ZM12.1026 23.4119C12.7126 22.5885 13.1781 21.6671 13.479 20.6872H15.858C14.8916 21.9378 13.587 22.8847 12.0989 23.4157L12.1026 23.4119ZM16.5907 19.5766H13.7898C14.0475 18.4675 14.1913 17.335 14.219 16.1966H17.5489C17.4762 17.3808 17.1481 18.5352 16.587 19.5803L16.5907 19.5766Z" fill="#A175A8"/>
<path d="M18.3 7.3189C17.2641 7.09307 15.9727 6.79691 15.2105 6.57849C14.2633 6.31934 12.3912 6.33043 11.2479 6.37115C10.9383 5.85257 10.5908 5.35761 10.2082 4.89033C10.3236 4.95674 10.4484 5.00541 10.5782 5.03471C10.8467 5.09928 11.1203 5.14015 11.3959 5.15687C11.788 5.14768 12.1647 5.00242 12.4615 4.74594C12.8447 4.38046 13.2044 3.99095 13.5382 3.57979C14.0562 3.04299 13.8305 2.6617 14.3485 2.1249C14.3818 2.09158 14.6371 1.86946 14.8036 1.7547C15.1531 1.50825 15.515 1.27967 15.8877 1.06982L18.0484 4.22023C18.0285 4.50112 18.0434 4.7834 18.0928 5.06061C18.1155 5.21088 18.1489 5.35937 18.1927 5.50488C18.1927 5.50488 18.1927 5.53449 18.1927 5.5456C18.3314 6.12595 18.3677 6.72606 18.3 7.3189V7.3189Z" fill="#723D72"/>
<path d="M21.1749 1.57329C20.716 1.61111 20.2564 1.50776 19.8577 1.27711C19.7975 1.24545 19.7292 1.23256 19.6616 1.2401H19.6394C19.3323 1.29193 18.8994 1.71026 18.5775 2.35072C18.3162 2.85279 18.1494 3.39866 18.0854 3.9611C18.0796 4.04739 18.0796 4.13394 18.0854 4.22023L15.9247 1.06982C16.3431 0.831458 16.777 0.621183 17.2233 0.440441C17.6481 0.265752 18.0894 0.134307 18.5405 0.0480468C19.0457 -0.0389982 19.5647 0.00170549 20.0501 0.166493C20.8197 0.440445 20.6495 0.755104 20.7013 1.02906C20.7093 1.06906 20.723 1.10774 20.742 1.14384C20.8312 1.33361 20.9845 1.48574 21.1749 1.57329V1.57329Z" fill="#945093"/>
<path d="M21.9186 13.7752C21.704 14.2602 21.1379 14.5156 20.4164 14.5564C19.003 14.7526 15.9062 13.3976 12.4208 11.8021C10.336 10.8951 8.37115 9.73366 6.57113 8.3443C4.77295 6.9079 3.61119 5.38267 4.51768 4.24243C5.52407 2.9319 7.62564 2.91711 9.78272 4.58304C9.87152 4.64227 9.95289 4.71257 10.0306 4.77551C10.0869 4.81922 10.1463 4.85884 10.2082 4.894C10.5908 5.36128 10.9383 5.85624 11.2479 6.37482C11.7799 7.33406 12.3809 8.25333 13.0461 9.12543C15.0849 9.46531 17.0852 10.006 19.0178 10.7396L19.3175 10.8802C20.9159 11.6614 22.3552 12.772 21.9186 13.7752Z" fill="#723D72"/>
<path d="M19.0178 10.7434C17.0852 10.0098 15.0849 9.4691 13.0461 9.12922C12.3809 8.25712 11.7799 7.33785 11.2479 6.37862C12.3912 6.3379 14.2633 6.32677 15.2105 6.58591C15.9727 6.79693 17.2641 7.09309 18.3 7.32632C18.2408 8.04082 18.1335 8.78497 18.0965 9.35138C18.0829 9.57322 18.1252 9.79493 18.2196 9.99613C18.314 10.1973 18.4574 10.3715 18.6367 10.5027C18.7551 10.5959 18.8828 10.6766 19.0178 10.7434V10.7434Z" fill="#945093"/>
<path d="M11.5328 5.83821L11.3774 6.27873C11.3657 6.30034 11.3596 6.32449 11.3596 6.34905C11.3596 6.3736 11.3657 6.3978 11.3774 6.41941L11.6475 6.78962C11.664 6.81247 11.6738 6.83949 11.6758 6.86762C11.6779 6.89574 11.672 6.92384 11.6589 6.94882C11.6459 6.97381 11.6261 6.99469 11.6019 7.00906C11.5777 7.02344 11.5499 7.03078 11.5217 7.03026H11.0518C11.0274 7.03011 11.0032 7.03573 10.9814 7.04666C10.9595 7.0576 10.9405 7.07352 10.926 7.09316L10.6485 7.46337C10.6311 7.48556 10.608 7.50262 10.5817 7.51267C10.5553 7.52273 10.5268 7.52544 10.499 7.52049C10.4713 7.51555 10.4454 7.50314 10.4241 7.48461C10.4029 7.46608 10.3871 7.44207 10.3784 7.41524L10.2489 6.96731C10.2425 6.94351 10.2304 6.92165 10.2136 6.90359C10.1968 6.88553 10.176 6.8718 10.1527 6.86364L9.7087 6.71559C9.68171 6.7067 9.65778 6.69039 9.63959 6.66855C9.62141 6.6467 9.60976 6.62016 9.6059 6.592C9.60204 6.56383 9.60614 6.53514 9.61778 6.5092C9.62942 6.48327 9.64811 6.46113 9.67171 6.4453L10.0417 6.18247C10.0625 6.16878 10.0795 6.15006 10.0911 6.12806C10.1028 6.10606 10.1087 6.08151 10.1083 6.05662V5.59015C10.1087 5.56196 10.1168 5.53442 10.1319 5.51062C10.147 5.48682 10.1685 5.46769 10.1938 5.45539C10.2192 5.44309 10.2475 5.4381 10.2755 5.44098C10.3035 5.44385 10.3302 5.45447 10.3525 5.47166L10.7225 5.75673C10.7419 5.77258 10.7649 5.78329 10.7895 5.78782C10.8141 5.79235 10.8394 5.79058 10.8631 5.78267L11.3071 5.64199C11.3348 5.61935 11.3696 5.60723 11.4054 5.60778C11.4412 5.60832 11.4755 5.6215 11.5025 5.64497C11.5295 5.66844 11.5474 5.70068 11.5529 5.73603C11.5585 5.77138 11.5513 5.8076 11.5328 5.83821V5.83821Z" fill="#E6ACE8"/>
</g>
<defs>
<clipPath id="clip0_753_365">
<rect width="22" height="25" fill="white"/>
</clipPath>
</defs>
</svg>
