<svg width="28" height="28" viewBox="0 0 28 28" fill="none" xmlns="http://www.w3.org/2000/svg">
	<path
		d="M27.9462 18.4194L24.2692 1.82696C24.1361 1.22559 23.7667 0.700982 23.242 0.368352C22.7174 0.0357225 22.0805 -0.0777204 21.4712 0.0529435C20.6338 0.23285 19.289 1.04585 18.9107 2.10252L4.41516 9.2077C4.09229 9.03989 3.71982 8.98988 3.36329 9.0665C2.49561 9.28807 1.70488 9.73742 1.075 10.3668C0.22151 11.2003 -0.142955 12.134 0.0508108 12.9994L1.20418 18.2509C1.39794 19.1231 2.12688 19.8131 3.26179 20.1934C3.81961 20.3774 4.4037 20.472 4.99184 20.4735C5.28401 20.4751 5.57552 20.4461 5.86148 20.387C6.22152 20.3115 6.54182 20.1101 6.76341 19.8199L22.9359 20.3688C23.5403 20.9927 24.6175 21.2455 25.4733 21.2455C25.7018 21.2475 25.9298 21.2261 26.1538 21.1818C26.7621 21.0493 27.2924 20.6842 27.6284 20.1663C27.9644 19.6485 28.0786 19.0203 27.9462 18.4194ZM6.88336 17.7726L5.38629 11.0182L19.1252 4.2819L22.2301 18.2919L6.88336 17.7726ZM3.93997 18.2531C3.45556 18.0892 3.24795 17.8819 3.24795 17.8136L2.09458 12.5622C2.07844 12.487 2.1684 12.1955 2.55593 11.8243C2.78661 11.5996 3.04927 11.4094 3.33561 11.2595L4.92264 18.4217C4.58851 18.4131 4.25745 18.3563 3.93997 18.2531ZM25.7086 19.1823C25.3014 19.2277 24.8893 19.1665 24.5137 19.0047L20.8922 2.71056C21.1662 2.40927 21.5153 2.18396 21.9048 2.05697C21.9757 2.04329 22.0491 2.05724 22.1098 2.09588C22.1704 2.13452 22.2135 2.19485 22.2301 2.26421L25.9208 18.8566C25.936 18.9276 25.9222 19.0015 25.8824 19.0625C25.8427 19.1234 25.7803 19.1665 25.7086 19.1823Z"
		fill="#A175A8" />
	<path
		d="M11.7829 17.9589L11.6514 17.9247L9.17165 17.8997C8.99519 17.8781 8.81611 17.8937 8.64616 17.9453C8.47622 17.9969 8.31923 18.0834 8.1855 18.199C8.05177 18.3147 7.94432 18.457 7.87018 18.6166C7.79605 18.7761 7.7569 18.9493 7.75531 19.1248L7.71379 25.454C7.70948 26.1234 7.97412 26.7673 8.44972 27.2445C8.92532 27.7217 9.57311 27.9934 10.2512 28H10.2743C10.9489 28 11.5962 27.7367 12.075 27.2674C12.5538 26.7981 12.8253 26.161 12.8301 25.495L12.8647 19.3685C12.8655 19.0491 12.7601 18.7382 12.5647 18.4835C12.3692 18.2289 12.0946 18.0446 11.7829 17.9589ZM10.7425 25.4813C10.7418 25.5435 10.7286 25.6049 10.7037 25.662C10.6787 25.719 10.6425 25.7706 10.5972 25.8138C10.5537 25.8577 10.5016 25.8924 10.4441 25.9158C10.3866 25.9393 10.3249 25.9511 10.2627 25.9504C10.1998 25.9497 10.1376 25.9367 10.0798 25.9121C10.0219 25.8874 9.96966 25.8517 9.92595 25.807C9.88124 25.7637 9.84591 25.7119 9.82211 25.6548C9.79832 25.5976 9.78656 25.5363 9.78754 25.4745L9.81984 19.9561H10.7748L10.7425 25.4813Z"
		fill="#A175A8" />
</svg>