<svg width="24" height="24" viewBox="0 0 24 24" fill="none" xmlns="http://www.w3.org/2000/svg">
<path fill-rule="evenodd" clip-rule="evenodd" d="M18.2857 2.05714H5.71429C3.6945 2.05714 2.05714 3.6945 2.05714 5.71429V18.2857C2.05714 20.3055 3.6945 21.9429 5.71429 21.9429H18.2857C20.3055 21.9429 21.9429 20.3055 21.9429 18.2857V5.71429C21.9429 3.6945 20.3055 2.05714 18.2857 2.05714ZM5.71429 0C2.55837 0 0 2.55837 0 5.71429V18.2857C0 21.4416 2.55837 24 5.71429 24H18.2857C21.4416 24 24 21.4416 24 18.2857V5.71429C24 2.55837 21.4416 0 18.2857 0H5.71429Z" fill="#A175A8"/>
<path fill-rule="evenodd" clip-rule="evenodd" d="M22.8571 8H1.14286V5.94285H22.8571V8Z" fill="#A175A8"/>
<path fill-rule="evenodd" clip-rule="evenodd" d="M9.14286 6.85714L4.57143 1.14285L6.3697 0.143816L10.9411 5.8581L9.14286 6.85714Z" fill="#A175A8"/>
<path fill-rule="evenodd" clip-rule="evenodd" d="M16.5714 6.85714L12 1.14285L13.7983 0.143816L18.3697 5.8581L16.5714 6.85714Z" fill="#A175A8"/>
<path d="M15.7143 13.7908C16.0952 14.0108 16.0952 14.5606 15.7143 14.7806L9.71428 18.2447C9.33333 18.4646 8.85714 18.1897 8.85714 17.7498L8.85714 10.8216C8.85714 10.3817 9.33333 10.1068 9.71429 10.3267L15.7143 13.7908Z" fill="#A175A8"/>
</svg>
